# xmcd
#
# Track frame offsets: 
#        150
#        18620
#        46490
#        77842
#        96210
#        116980
#        127645
#        145777
#        168307
#        192517
#        220470
#
# Disc length: 3045 seconds
#
# Revision: 7
# Processed by: cddbd v1.5.2PL0 Copyright (c) Steve Scherf et al.
# Submitted via: ExactAudioCopyFreeDBPlugin 1.0
#
DISCID=9c0be30b
DTITLE=Toto - Falling In Between (Frontiers Records Japan Edition)
DYEAR=2006
DGENRE=Pop
TTITLE0=Falling In Between
TTITLE1=Dying On My Feet
TTITLE2=Bottom Of Your Soul
TTITLE3=King Of The World
TTITLE4=Hooked
TTITLE5=Simple Life
TTITLE6=Taint Your World
TTITLE7=Let It Go
TTITLE8=Spiritual Man
TTITLE9=No End In Sight
TTITLE10=The Reeferman
EXTD=YEAR: 2006
EXTT0=
EXTT1=
EXTT2=
EXTT3=
EXTT4=
EXTT5=
EXTT6=
EXTT7=
EXTT8=
EXTT9=
EXTT10=
PLAYORDER=
